<svg height="1518" width="720" xmlns="http://www.w3.org/2000/svg">
<rect height="1518" fill="#555" width="720"></rect>
<text fill="#7f7" font-family="Courier New" font-size="12" xml:space="preserve">
<tspan x="10" y="26">14 megabytes installed</tspan>
<tspan x="10" y="42"></tspan>
<tspan x="10" y="58">node_modules</tspan>
<tspan x="10" y="74">└─┬ nemo@3.0.0-alpha.5 </tspan>
<tspan x="10" y="90">  ├── async@1.5.2 </tspan>
<tspan x="10" y="106">  ├─┬ confit@2.1.0 </tspan>
<tspan x="10" y="122">  │ ├── async@0.9.2 </tspan>
<tspan x="10" y="138">  │ ├── babel-runtime@4.7.3 </tspan>
<tspan x="10" y="154">  │ ├── caller@1.0.1 </tspan>
<tspan x="10" y="170">  │ ├── core-util-is@1.0.2 </tspan>
<tspan x="10" y="186">  │ ├── debuglog@1.0.1 </tspan>
<tspan x="10" y="202">  │ ├── minimist@1.2.0 </tspan>
<tspan x="10" y="218">  │ ├─┬ shortstop@1.0.3 </tspan>
<tspan x="10" y="234">  │ │ └── async@0.2.10 </tspan>
<tspan x="10" y="250">  │ └─┬ shush@1.0.0 </tspan>
<tspan x="10" y="266">  │   ├─┬ caller@0.0.1 </tspan>
<tspan x="10" y="282">  │   │ └─┬ tape@2.3.3 </tspan>
<tspan x="10" y="298">  │   │   ├── deep-equal@0.1.2 </tspan>
<tspan x="10" y="314">  │   │   ├── defined@0.0.0 </tspan>
<tspan x="10" y="330">  │   │   ├── jsonify@0.0.0 </tspan>
<tspan x="10" y="346">  │   │   ├── resumer@0.0.0 </tspan>
<tspan x="10" y="362">  │   │   └── through@2.3.8 </tspan>
<tspan x="10" y="378">  │   └── strip-json-comments@0.1.3 </tspan>
<tspan x="10" y="394">  ├─┬ debug@2.6.4 </tspan>
<tspan x="10" y="410">  │ └── ms@0.7.3 </tspan>
<tspan x="10" y="426">  ├── lodash@4.17.4 </tspan>
<tspan x="10" y="442">  ├─┬ selenium-webdriver@3.4.0 </tspan>
<tspan x="10" y="458">  │ ├── adm-zip@0.4.7 </tspan>
<tspan x="10" y="474">  │ ├── rimraf@2.6.1 </tspan>
<tspan x="10" y="490">  │ ├─┬ tmp@0.0.30 </tspan>
<tspan x="10" y="506">  │ │ └── os-tmpdir@1.0.2 </tspan>
<tspan x="10" y="522">  │ └─┬ xml2js@0.4.17 </tspan>
<tspan x="10" y="538">  │   ├── sax@1.2.2 </tspan>
<tspan x="10" y="554">  │   └── xmlbuilder@4.2.1 </tspan>
<tspan x="10" y="570">  ├─┬ shortstop-handlers@1.0.1 </tspan>
<tspan x="10" y="586">  │ └─┬ glob@7.1.1 </tspan>
<tspan x="10" y="602">  │   ├── fs.realpath@1.0.0 </tspan>
<tspan x="10" y="618">  │   ├─┬ inflight@1.0.6 </tspan>
<tspan x="10" y="634">  │   │ └── wrappy@1.0.2 </tspan>
<tspan x="10" y="650">  │   ├── inherits@2.0.3 </tspan>
<tspan x="10" y="666">  │   ├─┬ minimatch@3.0.3 </tspan>
<tspan x="10" y="682">  │   │ └─┬ brace-expansion@1.1.7 </tspan>
<tspan x="10" y="698">  │   │   ├── balanced-match@0.4.2 </tspan>
<tspan x="10" y="714">  │   │   └── concat-map@0.0.1 </tspan>
<tspan x="10" y="730">  │   ├── once@1.4.0 </tspan>
<tspan x="10" y="746">  │   └── path-is-absolute@1.0.1 </tspan>
<tspan x="10" y="762">  └─┬ yargs@4.8.1 </tspan>
<tspan x="10" y="778">    ├─┬ cliui@3.2.0 </tspan>
<tspan x="10" y="794">    │ ├─┬ strip-ansi@3.0.1 </tspan>
<tspan x="10" y="810">    │ │ └── ansi-regex@2.1.1 </tspan>
<tspan x="10" y="826">    │ └── wrap-ansi@2.1.0 </tspan>
<tspan x="10" y="842">    ├── decamelize@1.2.0 </tspan>
<tspan x="10" y="858">    ├── get-caller-file@1.0.2 </tspan>
<tspan x="10" y="874">    ├── lodash.assign@4.2.0 </tspan>
<tspan x="10" y="890">    ├─┬ os-locale@1.4.0 </tspan>
<tspan x="10" y="906">    │ └─┬ lcid@1.0.0 </tspan>
<tspan x="10" y="922">    │   └── invert-kv@1.0.0 </tspan>
<tspan x="10" y="938">    ├─┬ read-pkg-up@1.0.1 </tspan>
<tspan x="10" y="954">    │ ├─┬ find-up@1.1.2 </tspan>
<tspan x="10" y="970">    │ │ ├── path-exists@2.1.0 </tspan>
<tspan x="10" y="986">    │ │ └─┬ pinkie-promise@2.0.1 </tspan>
<tspan x="10" y="1002">    │ │   └── pinkie@2.0.4 </tspan>
<tspan x="10" y="1018">    │ └─┬ read-pkg@1.1.0 </tspan>
<tspan x="10" y="1034">    │   ├─┬ load-json-file@1.1.0 </tspan>
<tspan x="10" y="1050">    │   │ ├── graceful-fs@4.1.11 </tspan>
<tspan x="10" y="1066">    │   │ ├─┬ parse-json@2.2.0 </tspan>
<tspan x="10" y="1082">    │   │ │ └─┬ error-ex@1.3.1 </tspan>
<tspan x="10" y="1098">    │   │ │   └── is-arrayish@0.2.1 </tspan>
<tspan x="10" y="1114">    │   │ ├── pify@2.3.0 </tspan>
<tspan x="10" y="1130">    │   │ └─┬ strip-bom@2.0.0 </tspan>
<tspan x="10" y="1146">    │   │   └── is-utf8@0.2.1 </tspan>
<tspan x="10" y="1162">    │   ├─┬ normalize-package-data@2.3.8 </tspan>
<tspan x="10" y="1178">    │   │ ├── hosted-git-info@2.4.2 </tspan>
<tspan x="10" y="1194">    │   │ ├─┬ is-builtin-module@1.0.0 </tspan>
<tspan x="10" y="1210">    │   │ │ └── builtin-modules@1.1.1 </tspan>
<tspan x="10" y="1226">    │   │ ├── semver@5.3.0 </tspan>
<tspan x="10" y="1242">    │   │ └─┬ validate-npm-package-license@3.0.1 </tspan>
<tspan x="10" y="1258">    │   │   ├─┬ spdx-correct@1.0.2 </tspan>
<tspan x="10" y="1274">    │   │   │ └── spdx-license-ids@1.2.2 </tspan>
<tspan x="10" y="1290">    │   │   └── spdx-expression-parse@1.0.4 </tspan>
<tspan x="10" y="1306">    │   └── path-type@1.1.0 </tspan>
<tspan x="10" y="1322">    ├── require-directory@2.1.1 </tspan>
<tspan x="10" y="1338">    ├── require-main-filename@1.0.1 </tspan>
<tspan x="10" y="1354">    ├── set-blocking@2.0.0 </tspan>
<tspan x="10" y="1370">    ├─┬ string-width@1.0.2 </tspan>
<tspan x="10" y="1386">    │ ├── code-point-at@1.1.0 </tspan>
<tspan x="10" y="1402">    │ └─┬ is-fullwidth-code-point@1.0.0 </tspan>
<tspan x="10" y="1418">    │   └── number-is-nan@1.0.1 </tspan>
<tspan x="10" y="1434">    ├── which-module@1.0.0 </tspan>
<tspan x="10" y="1450">    ├── window-size@0.2.0 </tspan>
<tspan x="10" y="1466">    ├── y18n@3.2.1 </tspan>
<tspan x="10" y="1482">    └─┬ yargs-parser@2.4.1 </tspan>
<tspan x="10" y="1498">      └── camelcase@3.0.0</tspan>
</text>
</svg>
